<svg xmlns="http://www.w3.org/2000/svg" width="237.471" height="268.377"><path d="M92.57 105.7V95.2a67.1 67.1 0 0 0-11-.9 81.39 81.39 0 0 0-77.8 56.9c-10.698 33.93 1.9 70.876 31.1 91.2-21.92-23.422-27.994-57.554-15.5-87.1a81.62 81.62 0 0 1 73.2-49.6zm2 118.5c19.914.005 36.284-15.703 37.1-35.6V11.2h32.4a52.92 52.92 0 0 1-.9-11.2h-44.3v177.2c-.695 19.983-17.105 35.817-37.1 35.8a38.09 38.09 0 0 1-17.2-4.3 36.88 36.88 0 0 0 30 15.5zm130.1-152.8v-9.9c-11.918.008-23.573-3.505-33.5-10.1a61.72 61.72 0 0 0 33.5 20z" fill="#25f4ee"/><path d="M191.17 51.4c-9.8-11.138-15.203-25.465-15.2-40.3h-11.8a60.95 60.95 0 0 0 27 40.3zm-109.6 87.2c-17.1.103-31.922 11.805-36 28.4a37.23 37.23 0 0 0 18.8 41.8 37.25 37.25 0 0 1-3-38.7 37.19 37.19 0 0 1 33.1-20.2 37.67 37.67 0 0 1 11 1.7v-45.1a99.88 99.88 0 0 0-11-.9h-2v34.3a39.7 39.7 0 0 0-10.9-1.3zm143.1-67.2v34.3c-22.098-.003-43.627-7.005-61.5-20v90.1c-.1 44.993-36.607 81.412-81.6 81.4a80.7 80.7 0 0 1-46.7-14.8 81.3 81.3 0 0 0 89.4 20.3c31.126-12.227 51.596-42.26 51.6-75.7V97.2a104.84 104.84 0 0 0 61.6 19.7V72.7c-4.3.018-8.6-.417-12.8-1.3z" fill="#fe2c55"/><path d="M163.17 175.8V85.7c17.937 12.908 39.5 19.804 61.6 19.7V71.1a62.23 62.23 0 0 1-33.6-19.7c-14.16-9.15-23.924-23.725-27-40.3h-32.4v177.5c-.663 15.82-11.25 29.495-26.4 34.1a37.25 37.25 0 0 1-40.9-13.8 37.23 37.23 0 0 1-18.8-41.8c4.078-16.595 18.91-28.297 36-28.4a37.67 37.67 0 0 1 11 1.7v-34.2a81.34 81.34 0 0 0-73.6 49.8c-12.468 29.712-6.233 63.982 15.9 87.4a80.92 80.92 0 0 0 46.7 13.8c44.96-.03 81.413-36.44 81.5-81.4z"/></svg>